<?xml version="1.0" encoding="UTF-8"?>
<svg version="1.1" xmlns="http://www.w3.org/2000/svg" width="512" height="512">
<path d="M0 0 C84.48 0 168.96 0 256 0 C253.75 6.75 253.75 6.75 252.20778465 9.83052635 C251.85894639 10.53218497 251.51010813 11.23384358 251.15069902 11.95676458 C250.58163172 13.08616065 250.58163172 13.08616065 250.00106812 14.2383728 C249.59508758 15.05204272 249.18910705 15.86571264 248.77082407 16.70403922 C247.41269512 19.42358517 246.04887642 22.14023664 244.68505859 24.85693359 C243.70906283 26.80836085 242.73341954 28.75996443 241.75810242 30.71173096 C239.11105859 36.00639255 236.45908802 41.29857265 233.80623198 46.59032393 C231.03402809 52.1222312 228.2663535 57.65640354 225.49819946 63.19033813 C220.25636621 73.6677879 215.01045758 84.14319163 209.76308501 94.61786807 C205.5694587 102.98931702 201.37778904 111.3617434 197.1875 119.73486328 C196.8893032 120.3307209 196.59110639 120.92657851 196.28387332 121.54049242 C193.68985988 126.72389337 191.09597459 131.90735846 188.5021019 137.09082985 C177.33988035 159.39646569 166.16925096 181.69788001 155 204 C188.33 204 221.66 204 256 204 C255.16194603 208.19026986 254.63984198 210.01114633 252.55078125 213.45703125 C252.03974854 214.30958496 251.52871582 215.16213867 251.00219727 216.04052734 C250.44459717 216.95527832 249.88699707 217.8700293 249.3125 218.8125 C248.11903965 220.80032995 246.92635768 222.78862738 245.734375 224.77734375 C244.8072168 226.31817627 244.8072168 226.31817627 243.86132812 227.89013672 C240.88636139 232.86064121 237.97434882 237.86734357 235.0625 242.875 C233.88679305 244.89327245 232.71101138 246.91150137 231.53515625 248.9296875 C230.95137207 249.93225586 230.36758789 250.93482422 229.76611328 251.96777344 C226.84671977 256.98005813 223.92316314 261.98991316 221 267 C219.83331309 268.99998819 218.66664643 270.9999882 217.5 273 C182.5 333 147.5 393 112.5 453 C111.92217773 453.99056396 111.34435547 454.98112793 110.74902344 456.00170898 C109.58565248 457.996036 108.42224121 459.99033949 107.25878906 461.98461914 C103.68573661 468.10935149 100.11415264 474.23493685 96.54394531 480.36132812 C94.79180706 483.36581124 93.03660382 486.36848853 91.28125 489.37109375 C89.16105263 493.00013182 87.05727858 496.63780834 84.96875 500.28515625 C84.27507324 501.48797241 84.27507324 501.48797241 83.56738281 502.71508789 C82.71176165 504.19910539 81.86181062 505.68641179 81.01855469 507.17749023 C80.06810317 508.81856204 79.04199694 510.41547573 78 512 C77.34 512 76.68 512 76 512 C76 436.1 76 360.2 76 282 C50.92 282 25.84 282 0 282 C0 188.94 0 95.88 0 0 Z " fill="#000000" transform="translate(128,0)"/>
</svg>
