<?xml version="1.0" encoding="UTF-8"?>
<svg version="1.1" xmlns="http://www.w3.org/2000/svg" width="512" height="512">
<path d="M0 0 C1.20918407 -0.00706559 2.41836815 -0.01413118 3.66419417 -0.02141088 C4.98411767 -0.0189958 6.30404118 -0.01658071 7.66396236 -0.01409245 C9.08705948 -0.01854677 10.51015411 -0.02386145 11.93324512 -0.02996117 C15.83955476 -0.04412875 19.74578477 -0.0458047 23.65211642 -0.04536426 C27.86703962 -0.0470136 32.08193012 -0.06008244 36.2968359 -0.07155704 C45.51193516 -0.09439866 54.72701137 -0.10232699 63.9421351 -0.10738349 C69.69891118 -0.11064196 75.45568058 -0.11716541 81.21245289 -0.12438488 C97.15897977 -0.14395094 113.10550044 -0.16035471 129.0520401 -0.16326141 C130.07235256 -0.16344898 131.09266502 -0.16363655 132.14389604 -0.16382981 C134.21223064 -0.16419605 136.28056525 -0.16455975 138.34889985 -0.16492092 C139.37559249 -0.16510373 140.40228514 -0.16528654 141.46008968 -0.16547489 C143.00201418 -0.16574572 143.00201418 -0.16574572 144.57508867 -0.16602201 C161.22375514 -0.16956206 177.87229214 -0.19657387 194.52091373 -0.23397278 C211.62391106 -0.27208407 228.72684421 -0.2914191 245.82988495 -0.29172093 C255.42849716 -0.29230492 265.02695498 -0.30075903 274.62552738 -0.32971859 C282.80065447 -0.35427039 290.97557087 -0.36148987 299.1507249 -0.34647106 C303.31850471 -0.33931726 307.48586882 -0.34009297 311.65360165 -0.36288166 C315.47664588 -0.38358443 319.29895781 -0.38076741 323.12199508 -0.36000682 C325.14416785 -0.35490047 327.16635804 -0.37420455 329.18843371 -0.39466852 C341.30396913 -0.28423009 351.78569794 3.13194791 360.89441586 11.26006222 C361.76066586 12.02318722 362.62691586 12.78631222 363.51941586 13.57256222 C374.60500962 26.11678674 377.04686694 38.48985518 377.03485775 54.73847103 C377.03931443 56.62535213 377.03931443 56.62535213 377.04386115 58.55035204 C377.0518977 62.03059843 377.05371885 65.51082416 377.05445862 68.99107873 C377.05631504 72.74927371 377.06386536 76.50745811 377.07059383 80.26564693 C377.08415426 88.47871895 377.0901984 96.69178607 377.09460449 104.90486741 C377.097371 110.03768056 377.10160911 115.17049184 377.10610867 120.30330372 C377.11829873 134.52733555 377.12859831 148.75136589 377.13198376 162.97540283 C377.13220332 163.88512699 377.13242289 164.79485115 377.13264911 165.73214271 C377.13286739 166.64398851 377.13308566 167.55583431 377.13331056 168.4953118 C377.13375402 170.34292066 377.13420058 172.19052953 377.13465023 174.03813839 C377.13487166 174.9546075 377.13509309 175.87107661 377.13532123 176.8153175 C377.13926683 191.65581529 377.15671475 206.4962639 377.18000975 221.33674271 C377.2037584 236.58994125 377.21618722 251.84311516 377.21735168 267.09633249 C377.2182665 275.65366829 377.22397017 284.21094001 377.24217129 292.76825809 C377.25761982 300.05689586 377.26266485 307.34544976 377.25443318 314.6341008 C377.25054333 318.34826079 377.2513741 322.06225212 377.26549053 325.77639103 C377.28069999 329.81530328 377.27231378 333.8538404 377.26190853 337.89276791 C377.27399314 339.62789051 377.27399314 339.62789051 377.28632188 341.3980661 C377.19791628 356.15406115 374.30950359 369.80423066 363.92566586 380.75615597 C357.00869843 387.52840648 348.91406128 392.53554947 340.79773617 397.74785519 C335.85698775 400.92138163 330.94265399 404.13551339 326.02332211 407.34209347 C325.01117641 408.00012966 323.99903072 408.65816586 322.95621395 409.33614254 C312.68563586 416.02180122 302.5361304 422.88119871 292.39441586 429.76006222 C277.96401261 439.53443184 263.46332688 449.19343422 248.89441586 458.76006222 C231.07283765 470.46274789 213.3614458 482.32124505 195.70792294 494.27583981 C194.07108984 495.38278759 192.4328424 496.4876474 190.79306698 497.5902319 C187.01352661 500.13325085 183.25868772 502.70016193 179.54920101 505.34453487 C178.86944714 505.82058666 178.18969326 506.29663845 177.48934078 506.78711605 C176.23357891 507.66756702 174.98689305 508.56118232 173.75200558 509.47067928 C171.09432275 511.31491116 169.26477487 512.24781817 166.00696468 512.3555212 C161.66160385 510.82617505 158.2120111 508.46329768 154.44910336 505.83818722 C153.62346889 505.27520931 152.79783443 504.71223141 151.94718075 504.13219357 C150.15634053 502.90968841 148.36868339 501.68251025 146.58386898 500.45122433 C141.74097474 497.11102203 136.87447475 493.80545452 132.01160336 490.49443722 C130.50373257 489.46564449 130.50373257 489.46564449 128.96539974 488.41606808 C118.68597068 481.41197248 108.29706594 474.57915482 97.89441586 467.76006222 C82.43095953 457.61080682 67.0583416 447.33645701 51.74335384 436.96468258 C35.87001861 426.21807634 19.88963567 415.64063181 3.84558773 405.15068722 C-4.38305967 399.76198661 -12.56535396 394.32059521 -20.61730289 388.67021847 C-21.31477634 388.18306866 -22.01224979 387.69591885 -22.7308588 387.19400692 C-33.35912883 379.66550443 -39.93434082 369.78198944 -42.68778276 356.9345901 C-43.489001 351.80564462 -43.37926184 346.66292435 -43.35955143 341.48299313 C-43.36267141 340.21716329 -43.36579139 338.95133346 -43.36900592 337.64714515 C-43.37731611 334.15419164 -43.37324591 330.66134812 -43.36703348 327.16839433 C-43.36249437 323.39324832 -43.36950004 319.61812077 -43.37499332 315.84297848 C-43.38387394 308.45502841 -43.3819711 301.06711905 -43.37616804 293.6791674 C-43.37164563 287.6721311 -43.37104116 281.66510618 -43.37321568 275.65806866 C-43.37352214 274.80210203 -43.37382861 273.94613541 -43.37414436 273.0642304 C-43.37478383 271.32515725 -43.37543226 269.5860841 -43.37608954 267.84701096 C-43.38178911 251.54928763 -43.37524115 235.25158682 -43.36448881 218.95386718 C-43.35555684 204.983167 -43.35710314 191.01250007 -43.36632633 177.0418005 C-43.37704108 160.80426768 -43.38123646 144.5667546 -43.3751018 128.32921875 C-43.37446473 126.5960416 -43.37383599 124.86286446 -43.37321568 123.12968731 C-43.37290712 122.27701585 -43.37259857 121.42434439 -43.37228067 120.5458344 C-43.37055711 114.55013195 -43.3734616 108.55444207 -43.37817478 102.55874157 C-43.38379714 95.24591955 -43.38223887 87.93314045 -43.37161329 80.62032332 C-43.36637429 76.8923835 -43.36426942 73.1645151 -43.3709116 69.43657589 C-43.37801563 65.38802188 -43.36950564 61.33964659 -43.35955143 57.29109859 C-43.36401287 56.12308496 -43.36847432 54.95507132 -43.37307096 53.75166333 C-43.30424007 39.28463925 -40.73354333 26.42662989 -31.10558414 15.26006222 C-30.35341618 14.34933956 -30.35341618 14.34933956 -29.58605289 13.42021847 C-22.36497067 5.39093726 -10.79056433 0.02020806 0 0 Z M294.52391374 109.38216734 C293.99306472 109.9137758 293.4622157 110.44538426 292.91528034 110.99310207 C292.30170402 111.6026963 291.6881277 112.21229053 291.05595815 112.8403573 C290.04332275 113.86173123 290.04332275 113.86173123 289.01023006 114.90373898 C288.29389955 115.61836064 287.57756904 116.3329823 286.83953154 117.06925917 C284.42253713 119.48293977 282.01279482 121.90373584 279.60291195 124.32451534 C277.87893031 126.04906069 276.15450902 127.77316662 274.42967892 129.49686337 C270.70802575 133.21806 266.98947247 136.94231338 263.27366924 140.66934872 C257.90118818 146.05805913 252.52321644 151.44126189 247.14387305 156.82312089 C238.41715712 165.55421797 229.69492017 174.28977537 220.97547054 183.02812862 C212.50352521 191.51842192 204.02948932 200.00661961 195.55261898 208.49199581 C194.76932081 209.27608215 194.76932081 209.27608215 193.97019844 210.07600862 C191.35056162 212.69825544 188.7308835 215.32046099 186.11118484 217.94264603 C164.3658533 239.70872311 142.62785318 261.48210844 120.89441586 283.26006222 C113.54564564 277.0371676 113.54564564 277.0371676 110.16738033 273.65328121 C109.51828197 273.00555752 108.86918362 272.35783382 108.20041561 271.69048214 C107.51492641 271.00139767 106.82943722 270.31231319 106.12317562 269.60234737 C105.38088207 268.86019985 104.63858852 268.11805233 103.87380123 267.35341549 C101.4420945 264.92101693 99.01394046 262.48510488 96.58582211 260.04912472 C94.89210686 258.35354269 93.19816942 256.65818258 91.50401974 254.96303463 C87.06147806 250.51668822 82.62194865 246.06734607 78.18305111 241.61736202 C73.64660621 237.07065896 69.10730334 232.52681119 64.56824398 227.98271847 C55.67417704 219.07795026 46.78319393 210.17010964 37.89441586 201.26006222 C35.06067344 202.6256511 32.99793148 203.91002453 30.77820492 206.14922237 C29.90775539 207.01989849 29.90775539 207.01989849 29.01972103 207.90816402 C28.09917934 208.84418957 28.09917934 208.84418957 27.16004086 209.79912472 C26.52201534 210.43998013 25.88398983 211.08083553 25.22663021 211.7411108 C23.19447516 213.78444043 21.16939368 215.83462204 19.14441586 217.88506222 C17.76597055 219.27354082 16.38706949 220.66156712 15.00769711 222.04912472 C11.63129692 225.44754919 8.26122298 228.85213475 4.89441586 232.26006222 C10.09617734 238.5612682 15.79701871 244.29755518 21.58142757 250.06059933 C22.65640556 251.13529479 23.73116251 252.21021138 24.80571651 253.28533077 C27.7059271 256.18582682 30.60919795 259.08324167 33.51305056 261.98009086 C36.55376598 265.01453079 39.59162651 268.05182616 42.62979794 271.08881283 C48.37560415 276.83151806 54.12395344 282.57167064 59.87323296 288.31089836 C66.42178456 294.84825046 72.96747751 301.38846167 79.51293826 307.92890823 C92.97026446 321.37579797 106.43115572 334.81911376 119.89441586 348.26006222 C125.3436406 343.71500552 130.39849632 338.89528434 135.40489864 333.86983395 C136.23575719 333.03982982 137.06661574 332.20982569 137.92265183 331.35466993 C140.21176715 329.06691031 142.49864022 326.7769372 144.78455913 324.48598456 C147.25639587 322.00980999 149.73114197 319.53654601 152.20552731 317.06291866 C156.48668856 312.78228054 160.76602206 308.49982231 165.04410267 304.21610546 C171.22941323 298.02265126 177.41749902 291.83197595 183.60625518 285.64196496 C193.64819625 275.59783787 203.68790434 265.55148189 213.72620296 255.50371456 C223.47470243 245.74602934 233.22425665 235.98939998 242.9752264 226.23418331 C243.57676044 225.63238655 244.17829449 225.03058978 244.79805683 224.41055675 C247.81592756 221.39138094 250.83381898 218.37222582 253.85172069 215.35308099 C278.86916183 190.32528124 303.88297687 165.29386013 328.89441586 140.26006222 C327.95685728 139.15682552 327.017926 138.05475533 326.07843685 136.95316219 C325.2943627 136.03239722 325.2943627 136.03239722 324.49444866 135.09303093 C322.07506102 132.3214241 319.50780724 129.71115761 316.91004086 127.10771847 C316.36837276 126.56272198 315.82670467 126.01772549 315.2686224 125.45621395 C314.13721272 124.31979036 313.00449055 123.18467204 311.87049007 122.0508337 C310.12947328 120.30760062 308.39664649 118.55648002 306.66394711 116.80498409 C305.55896688 115.69707477 304.45351537 114.58963524 303.34754086 113.48271847 C302.82984127 112.95783337 302.31214169 112.43294827 301.77875423 111.89215755 C298.54491919 108.12450331 298.54491919 108.12450331 294.52391374 109.38216734 Z " fill="#000000" transform="translate(89.10558414459229,-0.26006221771240234)"/>
</svg>
