<?xml version="1.0" encoding="UTF-8"?>
<svg version="1.1" xmlns="http://www.w3.org/2000/svg" width="512" height="512">
<path d="M0 0 C24.47149553 -0.54666941 47.22661778 7.63286298 65.28515625 24.12109375 C66.01347656 24.77980469 66.74179687 25.43851563 67.4921875 26.1171875 C79.76299167 37.77797082 88.26795308 53.77741981 92.28515625 70.12109375 C92.50945312 70.96285156 92.73375 71.80460937 92.96484375 72.671875 C98.38536818 96.5444586 92.39060314 121.05330295 79.8984375 141.578125 C78.07045133 144.45952692 76.23157398 147.31825223 74.28515625 150.12109375 C78.4632825 154.4167298 82.77273009 158.45721226 87.3125 162.3671875 C89.23445203 164.07601217 91.04570144 165.84938919 92.84765625 167.68359375 C99.35576025 174.53067184 99.35576025 174.53067184 107.72265625 178.49609375 C112.50517227 179.87410684 114.99169121 182.39944122 118.31640625 186.0078125 C120.22761794 188.0593314 122.21476959 189.86653839 124.34765625 191.68359375 C127.55817761 194.44351562 130.53872872 197.3520039 133.50390625 200.37109375 C135.36905299 202.20351862 137.30443371 203.9146251 139.28515625 205.62109375 C142.51131697 208.40055529 145.51332716 211.32307139 148.4921875 214.36328125 C150.41626762 216.24963431 152.42385645 217.99647174 154.47265625 219.74609375 C162.03677929 226.39958451 162.03677929 226.39958451 162.625 230.4765625 C162.76734738 234.33132947 162.53921254 237.41870282 161.22265625 241.05859375 C158.49474631 243.96249788 156.09149895 244.97919094 152.28515625 246.12109375 C145.49241537 246.00192286 141.42650238 243.13593384 136.57421875 238.5703125 C135.69507813 237.65894531 134.8159375 236.74757813 133.91015625 235.80859375 C130.1216031 231.92732278 126.2384365 228.25194274 122.11328125 224.73046875 C119.64481656 222.5573759 117.36980262 220.21637006 115.06640625 217.87109375 C113.20125951 216.03866888 111.26587879 214.3275624 109.28515625 212.62109375 C106.00536173 209.79171588 102.90805209 206.84547162 99.890625 203.73828125 C98.4616285 202.29885412 96.94071902 200.95201789 95.41015625 199.62109375 C92.74455352 196.48509054 92.81393763 194.1247242 92.28515625 190.12109375 C90.96232267 189.43382849 89.62614053 188.77223382 88.28515625 188.12109375 C86.48931551 186.43958449 84.74398826 184.70345547 83.03515625 182.93359375 C79.2143556 179.02103271 75.304612 175.30763347 71.14453125 171.7578125 C68.04378633 169.02837527 65.16417716 166.08108712 62.28515625 163.12109375 C58.64187516 164.42729646 55.90665581 166.01720154 52.84765625 168.37109375 C34.17046971 181.64100029 9.78251611 185.27587817 -12.5234375 181.90234375 C-30.12709558 178.8316059 -45.51967606 171.15259311 -58.71484375 159.12109375 C-59.48183594 158.44691406 -60.24882812 157.77273438 -61.0390625 157.078125 C-77.23570716 142.01213617 -87.00336352 120.06377366 -88.09765625 98.078125 C-88.78800758 73.39853508 -82.94295932 50.62480972 -66.15234375 31.74609375 C-64.68075887 30.19718831 -63.20225059 28.65481179 -61.71484375 27.12109375 C-61.17601562 26.50878906 -60.6371875 25.89648438 -60.08203125 25.265625 C-46.6680407 10.53719819 -24.4969244 1.72991286 -4.8984375 0.2109375 C-3.26549342 0.14375018 -1.63270234 0.07282557 0 0 Z M-48.40234375 49.24609375 C-59.84853728 63.87291097 -65.09733508 81.02717354 -63.08984375 99.49609375 C-60.24986044 117.89015781 -51.60840362 133.33937976 -36.96484375 144.80859375 C-26.63863462 152.28930136 -14.52950827 157.30941634 -1.71484375 158.12109375 C-0.63009766 158.20037109 -0.63009766 158.20037109 0.4765625 158.28125 C18.98832495 158.98268416 34.90540061 151.85669638 48.69140625 140.0625 C60.78668985 128.77494938 68.47107191 112.90622163 69.5234375 96.37890625 C70.02075918 77.95793275 65.55406837 61.67316437 52.91015625 47.74609375 C40.24897333 34.40563514 24.98747757 26.52507079 6.64453125 24.7734375 C-14.84384666 24.21936498 -34.32849665 33.1178428 -48.40234375 49.24609375 Z " fill="#000000" transform="translate(349.71484375,132.87890625)"/>
<path d="M0 0 C32.34 0 64.68 0 98 0 C98 10.23 98 20.46 98 31 C77.54 31 57.08 31 36 31 C36 41.23 36 51.46 36 62 C55.14 62 74.28 62 94 62 C94 71.9 94 81.8 94 92 C74.86 92 55.72 92 36 92 C36 104.21 36 116.42 36 129 C57.45 129 78.9 129 101 129 C101 138.9 101 148.8 101 159 C67.67 159 34.34 159 0 159 C0 106.53 0 54.06 0 0 Z " fill="#000000" transform="translate(132,145)"/>
<path d="M0 0 C-0.63382929 6.7394507 -2.22297453 12.99550621 -4.0625 19.5 C-4.34416016 20.51320312 -4.62582031 21.52640625 -4.91601562 22.5703125 C-5.60565183 25.04832734 -6.30041189 27.52478 -7 30 C-12.67115222 29.17133849 -17.98691001 27.58755313 -23.46484375 25.9375 C-33.93855496 23.15994123 -46.02435555 22.07452555 -56 27 C-59.62480162 29.46342655 -59.62480162 29.46342655 -62 33 C-62.2357855 35.04068634 -62.2357855 35.04068634 -62.25 37.3125 C-62.28867188 38.45138672 -62.28867188 38.45138672 -62.328125 39.61328125 C-61.79314203 43.5046455 -60.01855115 46.18905784 -56.95898438 48.625 C-50.36913462 52.45592834 -43.62807108 55.32157329 -36.5 58 C-20.63034036 63.96314484 -4.47532719 71.90125783 3 88 C8.16720656 99.74365126 8.20166287 112.72166728 3.5859375 124.65625 C-2.17095916 137.47757656 -11.22029508 145.40136497 -24 151 C-47.90825295 159.73536614 -76.75355814 157.88151504 -100 148 C-100.66 147.67 -101.32 147.34 -102 147 C-101.47583679 139.96164239 -100.33705664 133.28063114 -98.625 126.4375 C-98.41617188 125.53708984 -98.20734375 124.63667969 -97.9921875 123.70898438 C-97.78078125 122.85498047 -97.569375 122.00097656 -97.3515625 121.12109375 C-97.16416504 120.3520874 -96.97676758 119.58308105 -96.78369141 118.79077148 C-96.39576416 117.9043396 -96.39576416 117.9043396 -96 117 C-92.14581705 115.71527235 -91.1872682 116.57480832 -87.5625 118.25 C-78.71444821 122.09697904 -69.64242349 124.43581565 -60 125 C-59.21109375 125.05285156 -58.4221875 125.10570312 -57.609375 125.16015625 C-49.8511745 125.4407201 -42.13665498 124.49652131 -35.9375 119.5625 C-32.69053317 115.26812452 -31.50256787 112.60464994 -31.69921875 107.015625 C-32.33258753 102.77123158 -34.52082069 100.15474454 -37.84106445 97.56274414 C-43.54997303 93.6674445 -49.30830954 91.01856677 -55.75 88.5625 C-73.22465651 81.63794687 -89.14201387 74.20225988 -97.875 56.6875 C-101.86881273 46.44362969 -101.58898551 34.26498893 -98 23.9375 C-92.09230542 10.85736495 -82.51128338 2.95872307 -69.5859375 -2.67578125 C-47.43005632 -10.85752822 -21.66507355 -8.52436377 0 0 Z " fill="#000000" transform="translate(102,150)"/>
</svg>
