<?xml version="1.0" encoding="UTF-8"?>
<svg version="1.1" xmlns="http://www.w3.org/2000/svg" width="512" height="512">
<path d="M0 0 C2.18627703 0.90720157 4.32289047 1.88926895 6.4624939 2.90167236 C7.27422562 3.27422653 8.08595734 3.6467807 8.92228699 4.03062439 C10.67900033 4.83817739 12.43339801 5.65078285 14.18569946 6.46786499 C18.92120508 8.67544397 23.67377765 10.84584148 28.4234314 13.02276611 C29.88830994 13.6961628 29.88830994 13.6961628 31.38278198 14.38316345 C41.12255705 18.85372906 50.93197085 23.1581009 60.75546265 27.44073486 C74.25277156 33.33528758 87.70893254 39.31314979 101.13046265 45.37823486 C115.43482442 51.84185992 129.78214314 58.19907119 144.16494751 64.4861145 C159.403368 71.14931127 174.57941182 77.9456997 189.73007202 84.80596924 C190.54219147 85.1731456 191.35431091 85.54032196 192.19104004 85.91862488 C193.7074982 86.60442298 195.22338311 87.29149064 196.73858643 87.98005676 C199.51388288 89.23499174 202.23849205 90.41424466 205.13046265 91.37823486 C205.20104783 111.21723341 205.25369017 131.05620591 205.28589916 150.89530468 C205.30126256 160.1102796 205.32214621 169.32517578 205.35678101 178.5401001 C205.38701054 186.58690986 205.40611373 194.63366252 205.41272813 202.68052751 C205.41658464 206.92759019 205.42541744 211.17448974 205.44765282 215.42149925 C205.5755058 240.84295452 204.95308489 266.18240869 199.44296265 291.12823486 C199.18805054 292.31320557 198.93313843 293.49817627 198.67050171 294.71905518 C185.91916191 351.80301004 156.62603153 402.74997935 115.56796265 444.06573486 C114.64781372 444.99301392 114.64781372 444.99301392 113.70907593 445.93902588 C85.15025994 474.39511231 37.2774474 509.19609802 -4.55703735 511.58917236 C-9.24849082 511.51776186 -13.41219633 510.39448611 -17.86953735 509.00323486 C-19.15235596 508.60829834 -19.15235596 508.60829834 -20.46109009 508.2053833 C-54.69878818 497.29017503 -87.17408409 479.15621958 -113.4984436 454.57354736 C-115.51992243 452.70193106 -117.57515221 450.89454829 -119.65859985 449.09307861 C-130.76644044 439.3974597 -140.82313543 428.86105426 -149.62246704 417.03546143 C-150.84842949 415.40628502 -152.1052602 413.80750679 -153.37734985 412.21417236 C-198.9306384 354.92071285 -215.55002465 284.81211621 -215.17371917 212.93687224 C-215.15457666 208.64222111 -215.15317311 204.34755892 -215.14964294 200.0528717 C-215.1404301 191.97185343 -215.11596722 183.89096132 -215.08559448 175.80999786 C-215.05170883 166.58823703 -215.03547987 157.3664692 -215.02050817 148.14466131 C-214.9894039 129.22244843 -214.93686036 110.30035189 -214.86953735 91.37823486 C-213.73226196 90.88009277 -212.59498657 90.38195068 -211.42324829 89.86871338 C-207.09875344 87.97420596 -202.77484084 86.07837261 -198.45108032 84.18218994 C-196.59934452 83.37031923 -194.74746246 82.558782 -192.89541626 81.74761963 C-179.85175154 76.03436681 -166.84529832 70.2440073 -153.86953735 64.37823486 C-139.55097475 57.91200268 -125.19164203 51.54774125 -110.79678345 45.25323486 C-97.29577815 39.34734608 -83.84438763 33.33845875 -70.41604614 27.26934814 C-55.24657832 20.41574128 -40.01804851 13.70160047 -24.7640686 7.03839111 C-23.51058624 6.49033813 -23.51058624 6.49033813 -22.23178101 5.93121338 C-20.6725322 5.24969631 -19.11286656 4.56913178 -17.55270386 3.88970947 C-13.57996595 2.16690045 -13.57996595 2.16690045 -9.74746704 0.15948486 C-6.40457686 -1.23121308 -3.43165337 -1.14128901 0 0 Z M-14.3734436 54.68292236 C-15.14644302 55.03328049 -15.91944244 55.38363861 -16.71586609 55.74461365 C-18.40076592 56.5084495 -20.08495461 57.27385546 -21.76852417 58.0406189 C-26.32812644 60.11646614 -30.89362795 62.17924016 -35.4593811 64.24151611 C-36.87827637 64.88264595 -36.87827637 64.88264595 -38.32583618 65.53672791 C-48.01779808 69.90894293 -57.75238806 74.18180921 -67.49453735 78.44073486 C-80.64696707 84.1937621 -93.77115911 90.00298719 -106.86953735 95.87823486 C-126.82725537 104.80668766 -146.85003695 113.58918591 -166.86953735 122.37823486 C-166.86953735 166.26823486 -166.86953735 210.15823486 -166.86953735 255.37823486 C-113.40953735 255.37823486 -59.94953735 255.37823486 -4.86953735 255.37823486 C-4.86953735 188.05823486 -4.86953735 120.73823486 -4.86953735 51.37823486 C-8.29949696 51.37823486 -11.29706914 53.27310285 -14.3734436 54.68292236 Z M-4.86953735 255.37823486 C-4.86953735 323.68823486 -4.86953735 391.99823486 -4.86953735 462.37823486 C39.39570502 449.09866215 78.97038525 419.72458352 106.13046265 382.37823486 C106.61853394 381.71855713 107.10660522 381.05887939 107.60946655 380.37921143 C118.53328902 365.58098092 127.13725378 349.90891032 135.13046265 333.37823486 C135.58034546 332.46042236 136.03022827 331.54260986 136.4937439 330.59698486 C145.32970882 311.9464791 150.85323564 292.22411248 154.94296265 272.06573486 C155.27191528 270.4451416 155.27191528 270.4451416 155.60751343 268.79180908 C155.80715698 267.77232178 156.00680054 266.75283447 156.2124939 265.70245361 C156.39014282 264.79583984 156.56779175 263.88922607 156.75082397 262.95513916 C157.25192126 259.9879202 157.25192126 259.9879202 157.13046265 255.37823486 C103.67046265 255.37823486 50.21046265 255.37823486 -4.86953735 255.37823486 Z " fill="#000000" transform="translate(260.8695373535156,0.62176513671875)"/>
</svg>
