<svg id="Layer_1" data-name="Layer 1" xmlns="http://www.w3.org/2000/svg" viewBox="0 0 1080 1080"><defs><style>.cls-1{fill:#0a8aa0;}.cls-2{fill:#00cdce;}.cls-3{fill:#08899e;}</style></defs><rect class="cls-1" x="110.89" y="852.64" width="175.77" height="175.77" rx="5.2"/><path class="cls-2" d="M127.12,51.59a16.24,16.24,0,0,0-16.24,16.24v704a16.24,16.24,0,0,0,16.24,16.24H270.41a16.24,16.24,0,0,0,16.24-16.24V595.61H665.41c144.82,0,262.21-121.78,262.21-272s-117.39-272-262.21-272M420,419.66c0,.06,0,.12.07.18H286.65V227.36H652.09v.19c56.19,3,100.72,44.86,100.72,96.05s-44.53,93-100.72,96"/><path class="cls-3" d="M863.69,502.3c-43.23,51.64-104.9,86.18-174.38,92.64,61.69,12.87,107.86,65,107.86,127.31,0,72-61.58,130.39-137.55,130.39H381.68a16.24,16.24,0,0,0-16.24,16.24v142.91A16.24,16.24,0,0,0,381.68,1028s271.79-.09,272.17-.11c175.73-8.8,315.27-141.42,315.27-303.76C969.12,636.66,928.57,557.81,863.69,502.3Z"/></svg>